<svg xmlns="http://www.w3.org/2000/svg" xmlns:xlink="http://www.w3.org/1999/xlink" version="1.1" x="0px" y="0px" viewBox="0 0 1024 1280" style="enable-background:new 0 0 1024 1024;" xml:space="preserve"><g><g><path d="M571.2,662.3c37.4,37.6,81.4,70.9,132.8,86.2c23.9,7.1,49.7,9.8,74.5,7.7c22.9-1.9,45.7-5.9,67.2-14.3    c21-8.2,40.9-17.8,58.9-31.3c10.4-7.8,20.6-15.8,29.8-25c9.4-9.3,17.5-19.7,25.5-30.2c27.7-36.7,42.1-81.2,46-126.6    c3.9-45.8-7.3-92.7-28.7-133.1c-20.8-39.3-54-73-92.3-95.4c-19.3-11.2-40.6-20.1-62.2-25.6c-22.2-5.6-46.1-8.7-69.1-7.4    c-45.9,2.5-89.5,19.8-126.4,47c-35.8,26.4-66.5,57.5-94.8,91.6c-26.5,32-51.7,65.1-76.8,98.2c-5.7,7.5-11.4,15-17.2,22.5    c2.6-3.4,5.2-6.7,7.8-10.1c-30.8,39.8-63.5,79.1-103.6,110.1c3.4-2.6,6.7-5.2,10.1-7.8c-16.3,12.5-33.7,23.4-52.6,31.5    c4-1.7,8-3.4,11.9-5c-13.9,5.8-28.3,10-43.3,12.1c4.4-0.6,8.9-1.2,13.3-1.8c-15.4,2-31,1.6-46.4-0.4c4.4,0.6,8.9,1.2,13.3,1.8    c-16.9-2.3-33.4-6.8-49.2-13.4c4,1.7,8,3.4,11.9,5c-15.4-6.5-29.8-14.9-43.1-25.1c3.4,2.6,6.7,5.2,10.1,7.8    c-13.5-10.4-25.5-22.5-36-36c2.6,3.4,5.2,6.7,7.8,10.1c-10.1-13.3-18.6-27.7-25.1-43.1c1.7,4,3.4,8,5,11.9    c-6.6-15.8-11.1-32.3-13.4-49.2c0.6,4.4,1.2,8.9,1.8,13.3c-2.3-17.5-2.3-35.2,0-52.7c-0.6,4.4-1.2,8.9-1.8,13.3    c2.3-16.9,6.8-33.4,13.4-49.2c-1.7,4-3.4,8-5,11.9c6.5-15.4,14.9-29.8,25.1-43.1c-2.6,3.4-5.2,6.7-7.8,10.1    c10.4-13.5,22.5-25.5,36-36c-3.4,2.6-6.7,5.2-10.1,7.8c13.3-10.1,27.7-18.6,43.1-25.1c-4,1.7-8,3.4-11.9,5    c15.8-6.6,32.3-11.1,49.2-13.4c-4.4,0.6-8.9,1.2-13.3,1.8c15.5-2,31.2-2.4,46.7-0.4c-4.4-0.6-8.9-1.2-13.3-1.8    c14.4,2,28.2,6,41.6,11.6c-4-1.7-8-3.4-11.9-5c19.1,8.1,36.7,19.2,53.2,31.8c-3.4-2.6-6.7-5.2-10.1-7.8    c13.1,10.2,25.5,21.4,37.3,33.2c9.1,9.1,22.5,14.6,35.4,14.6c12.3,0,26.9-5.4,35.4-14.6c8.7-9.5,15.2-22,14.6-35.4    c-0.6-13.3-5.1-25.8-14.6-35.4c-36.1-36.1-77.9-67.5-127-83.3c-22.9-7.4-47.9-10.4-71.9-9.1c-22,1.2-44.3,4.8-65.2,11.9    c-40.7,13.9-78.8,37.7-107,70.5c-28,32.6-49.1,71.8-56.7,114.4c-7.9,44.2-6.1,90.8,10.6,132.9c8,20.1,17.1,39.3,30.1,56.6    c12.8,17.2,26.4,33.2,43.3,46.6c17.2,13.6,34.5,25.5,54.7,34.3c12,5.2,23.9,10.1,36.5,13.6c12.7,3.5,25.5,5.3,38.6,6.9    c44.2,5.7,87.5-4.2,127-24.2c20.1-10.1,38.1-23.6,55.6-37.6c15.1-12.1,29.1-25.5,42.4-39.5c28.5-30.1,53.7-63.1,78.7-96.1    c5.2-6.8,10.3-13.7,15.5-20.5c-2.6,3.4-5.2,6.7-7.8,10.1c32.2-41,63.2-83.2,100.5-119.9c10.8-10.6,22.1-20.7,34-30    c-3.4,2.6-6.7,5.2-10.1,7.8c16.5-12.7,34.2-23.9,53.5-32c-4,1.7-8,3.4-11.9,5c13.4-5.6,27.4-9.6,41.8-11.6    c-4.4,0.6-8.9,1.2-13.3,1.8c15.4-2,31-1.6,46.4,0.4c-4.4-0.6-8.9-1.2-13.3-1.8c16.9,2.3,33.4,6.8,49.2,13.4c-4-1.7-8-3.4-11.9-5    c15.4,6.5,29.8,14.9,43.1,25.1c-3.4-2.6-6.7-5.2-10.1-7.8c13.5,10.4,25.5,22.5,36,36c-2.6-3.4-5.2-6.7-7.8-10.1    c10.1,13.3,18.6,27.7,25.1,43.1c-1.7-4-3.4-8-5-11.9c6.6,15.8,11.1,32.3,13.4,49.2c-0.6-4.4-1.2-8.9-1.8-13.3    c2.3,17.5,2.3,35.2,0,52.7c0.6-4.4,1.2-8.9,1.8-13.3c-2.3,16.9-6.8,33.4-13.4,49.2c1.7-4,3.4-8,5-11.9    c-6.5,15.4-14.9,29.8-25.1,43.1c2.6-3.4,5.2-6.7,7.8-10.1c-10.4,13.5-22.5,25.5-36,36c3.4-2.6,6.7-5.2,10.1-7.8    c-13.3,10.1-27.7,18.6-43.1,25.1c4-1.7,8-3.4,11.9-5c-15.8,6.6-32.3,11.1-49.2,13.4c4.4-0.6,8.9-1.2,13.3-1.8    c-15.5,2-31.1,2.4-46.6,0.4c4.4,0.6,8.9,1.2,13.3,1.8c-14.9-2.1-29.3-6.3-43.1-12.1c4,1.7,8,3.4,11.9,5    c-19.1-8.2-36.8-19.3-53.3-32c3.4,2.6,6.7,5.2,10.1,7.8c-13.6-10.6-26.4-22.2-38.5-34.4c-9-9.1-22.6-14.6-35.4-14.6    c-12.3,0-26.9,5.4-35.4,14.6c-8.7,9.5-15.2,22-14.6,35.4C557.2,640.2,561.7,652.6,571.2,662.3L571.2,662.3z"/></g></g></svg>