<svg xmlns="http://www.w3.org/2000/svg" xmlns:xlink="http://www.w3.org/1999/xlink" version="1.1" x="0px" y="0px" viewBox="0 0 100 125" style="enable-background:new 0 0 100 100;" xml:space="preserve"><g><path d="M86.584,6.911H13.416C8.775,6.911,5,10.687,5,15.327v69.346c0,4.641,3.775,8.416,8.416,8.416h73.168   c4.641,0,8.416-3.775,8.416-8.416V15.327C95,10.687,91.225,6.911,86.584,6.911z M86.584,89.089H13.416   C10.981,89.089,9,87.108,9,84.673V49.7h5.25c0.663,0,1.2-0.538,1.2-1.2s-0.537-1.2-1.2-1.2H9V15.327   c0-2.435,1.981-4.416,4.416-4.416h73.168c2.435,0,4.416,1.981,4.416,4.416V47.3H72.5c-0.663,0-1.2,0.538-1.2,1.2s0.537,1.2,1.2,1.2   H91v34.973C91,87.108,89.019,89.089,86.584,89.089z"/><path d="M25.679,59.542h-2.472v-4.849c0-0.718-0.582-1.3-1.3-1.3s-1.3,0.582-1.3,1.3v4.849h-2.472   c-1.765,0-3.201,1.436-3.201,3.201v2.399c0,1.765,1.437,3.201,3.201,3.201h2.472v14.909c0,0.718,0.582,1.3,1.3,1.3   s1.3-0.582,1.3-1.3V68.343h2.472c1.765,0,3.201-1.436,3.201-3.201v-2.399C28.88,60.978,27.443,59.542,25.679,59.542z M25.88,65.142   c0,0.111-0.09,0.201-0.201,0.201h-7.543c-0.111,0-0.201-0.09-0.201-0.201v-2.399c0-0.111,0.09-0.201,0.201-0.201h7.543   c0.111,0,0.201,0.09,0.201,0.201V65.142z"/><path d="M44.407,59.542h-2.472v-4.849c0-0.718-0.582-1.3-1.3-1.3s-1.3,0.582-1.3,1.3v4.849h-2.472   c-1.765,0-3.201,1.436-3.201,3.201v2.399c0,1.765,1.437,3.201,3.201,3.201h2.472v14.909c0,0.718,0.582,1.3,1.3,1.3   s1.3-0.582,1.3-1.3V68.343h2.472c1.765,0,3.201-1.436,3.201-3.201v-2.399C47.608,60.978,46.172,59.542,44.407,59.542z    M44.608,65.142c0,0.111-0.09,0.201-0.201,0.201h-7.543c-0.111,0-0.201-0.09-0.201-0.201v-2.399c0-0.111,0.09-0.201,0.201-0.201   h7.543c0.111,0,0.201,0.09,0.201,0.201V65.142z"/><path d="M59.364,76.2c-0.718,0-1.3,0.582-1.3,1.3v5.751c0,0.718,0.582,1.3,1.3,1.3s1.3-0.582,1.3-1.3V77.5   C60.664,76.782,60.082,76.2,59.364,76.2z"/><path d="M63.136,59.542h-2.472v-4.849c0-0.718-0.582-1.3-1.3-1.3s-1.3,0.582-1.3,1.3v4.849h-2.472   c-1.765,0-3.201,1.436-3.201,3.201v2.399c0,1.765,1.437,3.201,3.201,3.201h2.472v5.824c0,0.718,0.582,1.3,1.3,1.3   s1.3-0.582,1.3-1.3v-5.824h2.472c1.765,0,3.201-1.436,3.201-3.201v-2.399C66.337,60.978,64.9,59.542,63.136,59.542z M63.337,65.142   c0,0.111-0.09,0.201-0.201,0.201h-7.543c-0.111,0-0.201-0.09-0.201-0.201v-2.399c0-0.111,0.09-0.201,0.201-0.201h7.543   c0.111,0,0.201,0.09,0.201,0.201V65.142z"/><path d="M81.864,59.542h-2.472v-4.849c0-0.718-0.582-1.3-1.3-1.3s-1.3,0.582-1.3,1.3v4.849h-2.472   c-1.765,0-3.201,1.436-3.201,3.201v2.399c0,1.765,1.437,3.201,3.201,3.201h2.472v14.909c0,0.718,0.582,1.3,1.3,1.3   s1.3-0.582,1.3-1.3V68.343h2.472c1.765,0,3.201-1.436,3.201-3.201v-2.399C85.065,60.978,83.629,59.542,81.864,59.542z    M82.065,65.142c0,0.111-0.09,0.201-0.201,0.201h-7.543c-0.111,0-0.201-0.09-0.201-0.201v-2.399c0-0.111,0.09-0.201,0.201-0.201   h7.543c0.111,0,0.201,0.09,0.201,0.201V65.142z"/><path d="M21.907,43.58c3.176,0,5.76-2.583,5.76-5.76s-2.584-5.76-5.76-5.76c-3.177,0-5.761,2.584-5.761,5.76   S18.73,43.58,21.907,43.58z M21.907,34.66c1.742,0,3.16,1.418,3.16,3.161c0,1.742-1.418,3.16-3.16,3.16   c-1.743,0-3.161-1.418-3.161-3.16C18.746,36.078,20.164,34.66,21.907,34.66z"/><path d="M21.907,28.03c3.176,0,5.76-2.584,5.76-5.76s-2.584-5.76-5.76-5.76c-3.177,0-5.761,2.584-5.761,5.76   S18.73,28.03,21.907,28.03z M21.907,19.109c1.742,0,3.16,1.418,3.16,3.161s-1.418,3.161-3.16,3.161   c-1.743,0-3.161-1.418-3.161-3.161S20.164,19.109,21.907,19.109z"/><path d="M40.636,43.58c3.176,0,5.76-2.583,5.76-5.76s-2.584-5.76-5.76-5.76s-5.76,2.584-5.76,5.76S37.46,43.58,40.636,43.58z    M40.636,34.66c1.742,0,3.16,1.418,3.16,3.161c0,1.742-1.418,3.16-3.16,3.16s-3.16-1.418-3.16-3.16   C37.476,36.078,38.894,34.66,40.636,34.66z"/><path d="M40.636,28.03c3.176,0,5.76-2.584,5.76-5.76s-2.584-5.76-5.76-5.76c-0.73,0-1.441,0.135-2.115,0.401   c-0.668,0.264-0.995,1.019-0.731,1.687c0.265,0.668,1.021,0.995,1.687,0.731c0.368-0.146,0.759-0.219,1.16-0.219   c1.742,0,3.16,1.418,3.16,3.161s-1.418,3.161-3.16,3.161s-3.16-1.418-3.16-3.161c0-0.252,0.029-0.503,0.088-0.745   c0.168-0.698-0.261-1.4-0.959-1.568c-0.7-0.168-1.4,0.261-1.568,0.959c-0.106,0.441-0.16,0.897-0.16,1.354   C34.876,25.446,37.46,28.03,40.636,28.03z"/><path d="M59.364,43.58c3.176,0,5.76-2.583,5.76-5.76s-2.584-5.76-5.76-5.76s-5.76,2.584-5.76,5.76S56.188,43.58,59.364,43.58z    M59.364,34.66c1.742,0,3.16,1.418,3.16,3.161c0,1.742-1.418,3.16-3.16,3.16s-3.16-1.418-3.16-3.16   C56.204,36.078,57.622,34.66,59.364,34.66z"/><path d="M59.364,28.03c3.176,0,5.76-2.584,5.76-5.76s-2.584-5.76-5.76-5.76s-5.76,2.584-5.76,5.76S56.188,28.03,59.364,28.03z    M59.364,19.109c1.742,0,3.16,1.418,3.16,3.161s-1.418,3.161-3.16,3.161s-3.16-1.418-3.16-3.161S57.622,19.109,59.364,19.109z"/><path d="M78.093,43.58c2.901,0,5.358-2.168,5.716-5.043c0.089-0.712-0.417-1.362-1.13-1.45c-0.716-0.089-1.361,0.417-1.45,1.13   c-0.196,1.575-1.544,2.764-3.136,2.764c-1.742,0-3.16-1.418-3.16-3.16c0-1.743,1.418-3.161,3.16-3.161   c0.772,0,1.517,0.282,2.095,0.794c0.536,0.475,1.358,0.426,1.835-0.112c0.476-0.538,0.426-1.359-0.112-1.835   c-1.054-0.933-2.409-1.446-3.817-1.446c-3.176,0-5.76,2.584-5.76,5.76S74.917,43.58,78.093,43.58z"/><path d="M78.093,28.03c3.177,0,5.761-2.584,5.761-5.76s-2.584-5.76-5.761-5.76c-3.176,0-5.76,2.584-5.76,5.76   S74.917,28.03,78.093,28.03z M78.093,19.109c1.743,0,3.161,1.418,3.161,3.161s-1.418,3.161-3.161,3.161   c-1.742,0-3.16-1.418-3.16-3.161S76.351,19.109,78.093,19.109z"/><path d="M68.75,47.3h-50.5c-0.663,0-1.2,0.538-1.2,1.2s0.537,1.2,1.2,1.2h50.5c0.663,0,1.2-0.538,1.2-1.2S69.413,47.3,68.75,47.3z"/></g></svg>