<svg xmlns="http://www.w3.org/2000/svg" xmlns:xlink="http://www.w3.org/1999/xlink" version="1.1" x="0px" y="0px" viewBox="0 0 100 125" enable-background="new 0 0 100 100" xml:space="preserve"><path d="M87.284,12.801c-0.525-0.508-1.082-0.429-1.73-0.153c-1.569,0.664-3.149,1.316-4.768,1.847  c-5.033,1.649-10.092,3.227-15.132,4.857c-5.472,1.771-10.931,3.574-16.398,5.353c-2.815,0.917-5.608,1.92-8.464,2.689  c-4.117,1.111-8.283,2.042-12.425,3.064c-0.438,0.107-0.854,0.31-1.275,0.478c-1.107,0.438-2.195,0.932-3.322,1.311  c-3.836,1.286-7.693,2.514-11.528,3.803c-2.364,0.794-3.625,2.708-4.493,4.861c-0.688,1.703,0.129,4.119,1.527,5.298  c0.853,0.719,1.856,0.962,2.88,0.715c1.741-0.419,3.106-1.444,3.89-3.085c0.199-0.418,0.254-1.033,0.104-1.464  c-0.485-1.4-3.241-2.384-4.556-1.648c-0.276,0.155-0.575,0.635-0.527,0.904c0.053,0.294,0.459,0.635,0.781,0.74  c0.351,0.114,0.797-0.097,1.175-0.023c0.407,0.078,0.979,0.226,1.12,0.518c0.151,0.311-0.01,0.892-0.225,1.237  c-0.587,0.945-2.21,1.428-3.015,0.985c-1.04-0.572-1.958-2.578-1.514-3.56c0.878-1.939,1.922-3.717,4.226-4.343  c0.961-0.262,1.771-0.247,2.612,0.246c2.848,1.671,3.589,5.789,1.468,8.332c-0.766,0.92-1.587,1.794-2.391,2.681  c-0.552,0.608-0.926,1.271-0.79,2.207c0.384,0,0.729,0.075,1.026-0.013c1.473-0.437,2.921-0.965,4.404-1.361  c0.861-0.232,1.776-0.401,2.661-0.378c1.211,0.034,1.445,0.345,1.559,1.582c0.261,2.852-0.419,5.549-1.398,8.192  c-0.179,0.479-0.413,0.946-0.533,1.439c-0.605,2.485-1.191,4.977-1.765,7.47c-0.192,0.84-0.632,1.105-1.489,0.92  c-0.593-0.129-1.292-0.231-1.837-0.04c-3.409,1.193-5.155,4.665-4.149,7.748c0.557,1.708,0.22,2.257-1.521,2.684  c-0.548,0.135-1.136,0.232-1.601,0.519c-0.242,0.149-0.377,0.689-0.325,1.016c0.031,0.189,0.52,0.405,0.815,0.428  c0.314,0.023,0.641-0.203,0.972-0.256c0.404-0.065,0.817-0.063,1.333-0.097c-0.19,1.313-0.985,1.879-1.806,2.376  c-0.729,0.443-1.1,1.044-0.878,1.851c0.223,0.818,0.537,1.624,0.92,2.382c0.289,0.571,0.8,0.606,1.259,0.122  c0.193-0.205,0.34-0.456,0.503-0.688c0.788-1.113,0.892-1.152,2.096-0.771c1.612,0.511,1.922,0.279,1.795-1.412  c-0.081-1.078-0.249-2.151-0.314-3.23c-0.045-0.738,0.148-1.261,1.089-1.4c3.852-0.565,5.987-4.362,4.555-8.039  c-0.308-0.789-0.388-1.536-0.117-2.329c0.421-1.23,0.896-2.446,1.245-3.697c0.564-2.011,1.426-3.835,2.927-5.319  c2.062-2.041,3.946-4.231,5.549-6.655c0.939-1.421,1.872-2.849,2.754-4.307c0.35-0.579,0.696-1.226,0.793-1.879  c0.297-1.99,1.205-3.371,3.27-3.816c0.441-0.096,0.865-0.27,1.298-0.404c2.718-0.848,5.443-1.676,8.153-2.549  c2.87-0.926,5.718-1.913,8.588-2.837c2.873-0.924,5.758-1.81,8.643-2.7c1.685-0.52,3.378-1.01,5.065-1.519  c0.272-0.082,0.536-0.188,0.804-0.287c2.19-0.813,4.367-1.668,6.576-2.423c1.616-0.553,3.401-0.734,4.889-1.509  c2.425-1.262,5.017-1.832,7.613-2.447c0.804-0.19,1.324-0.564,1.638-1.319c1.392-3.348,1.322-6.594-0.92-9.537  C89.699,14.908,88.424,13.904,87.284,12.801z M19.739,77.131c-0.621,0.857-1.676,1.157-2.768,0.82  c-1.347-0.416-2.232-1.288-2.568-2.693c-0.38-1.59,0.581-4.065,1.944-4.946c1.081-0.698,1.803-0.656,2.753,0.205  c1.038,0.94,1.778,2.05,1.941,3.862C20.704,75.122,20.382,76.243,19.739,77.131z M33.125,48.306c-0.77,1.261-1.406,2.614-2.274,3.8  c-1.302,1.778-2.729,3.468-4.163,5.144c-0.322,0.377-0.887,0.547-1.595,0.96c0-0.782-0.047-1.22,0.008-1.645  c0.311-2.415,0.695-4.822,0.948-7.243c0.127-1.205,0.476-2.03,1.784-2.332c1.213-0.28,2.367-0.829,3.584-1.09  c0.529-0.114,1.338,0.007,1.686,0.354C33.639,46.791,33.56,47.595,33.125,48.306z M33.442,43.258  c-0.16,0.808-0.817,1.006-1.503,1.197c-3.018,0.84-6.034,1.691-9.045,2.559c-1.515,0.436-3.019,0.916-4.574,1.39  c-0.345-0.883,0.147-1.36,0.501-1.822c1.556-2.029,1.627-4.358,1.219-6.695c-0.144-0.822-0.863-1.562-1.381-2.297  c-0.377-0.537-0.853-1.005-1.319-1.545c1.096-1.114,2.392-1.448,3.62-1.819c2.996-0.903,6.023-1.703,9.042-2.532  c1.16-0.318,1.518-0.203,1.955,0.995c0.68,1.865,1.24,3.775,1.816,5.678C34.277,40.028,33.763,41.642,33.442,43.258z M90.576,23.194  c-0.208,1.406-0.935,2.329-2.228,2.755c-1.834,0.604-3.701,1.112-5.556,1.657c-0.433,0.127-0.979,0.106-1.291,0.369  c-1.385,1.171-3.098,1.357-4.749,1.777c-0.929,0.236-1.866,0.541-2.709,0.985c-2.846,1.503-5.911,2.348-8.984,3.196  c-1.533,0.424-3.042,0.938-4.558,1.428c-3.299,1.065-6.594,2.141-9.89,3.213c-2.924,0.95-5.841,1.923-8.773,2.847  c-1.574,0.495-3.165,0.949-4.768,1.343c-1.111,0.272-1.716-0.221-1.536-1.353c0.349-2.192-0.312-4.155-1.062-6.143  c-0.499-1.325-0.863-2.702-1.291-4.066c0.274-0.261,0.343-0.382,0.439-0.41c4.196-1.25,8.405-2.456,12.589-3.746  c2.937-0.906,5.833-1.935,8.755-2.892c3.512-1.15,7.035-2.267,10.544-3.427c3.568-1.181,7.124-2.4,10.69-3.592  c0.701-0.235,1.42-0.42,2.128-0.637c1.629-0.497,3.271-0.96,4.882-1.509c2.715-0.926,4.067-0.561,5.788,1.753  C90.424,18.661,90.93,20.809,90.576,23.194z"/></svg>