<svg xmlns="http://www.w3.org/2000/svg" xmlns:xlink="http://www.w3.org/1999/xlink" version="1.1" x="0px" y="0px" viewBox="0 0 100 125" enable-background="new 0 0 100 100" xml:space="preserve"><path d="M85.501,49.967c0-7.754-4.373-14.594-10.873-18.43c-0.215-0.131-0.459-0.206-0.71-0.217c-0.828-0.039-1.53,0.6-1.569,1.428  c-0.026,0.563,0.265,1.093,0.754,1.373c5.667,3.344,9.398,9.219,9.398,15.846c0,10.265-8.982,18.752-20.09,18.752H43.018  l12.512-6.772c0.735-0.383,1.021-1.288,0.638-2.023c-0.382-0.735-1.288-1.021-2.023-0.638c-0.014,0.008-0.029,0.015-0.043,0.023  l-17.722,9.591c-0.729,0.395-0.999,1.305-0.605,2.034c0.139,0.256,0.349,0.466,0.605,0.605l17.722,9.591  c0.725,0.401,1.638,0.138,2.039-0.587c0.401-0.725,0.138-1.638-0.587-2.039c-0.008-0.004-0.016-0.009-0.024-0.013L43.018,71.72  h19.393C75.054,71.72,85.501,61.977,85.501,49.967z" /><path d="M25.313,68.372c0.705,0.435,1.629,0.217,2.065-0.488c0.435-0.705,0.217-1.629-0.488-2.065  c-0.014-0.008-0.027-0.016-0.041-0.024c-5.628-3.355-9.35-9.211-9.35-15.828c0-10.253,8.981-18.741,20.101-18.741h19.262  l-12.619,6.829c-0.735,0.383-1.021,1.288-0.638,2.023c0.382,0.735,1.288,1.021,2.023,0.638c0.014-0.008,0.029-0.015,0.043-0.023  l17.722-9.591c0.729-0.395,0.999-1.305,0.605-2.034c-0.139-0.256-0.349-0.466-0.605-0.605l-17.722-9.591  c-0.219-0.123-0.466-0.188-0.717-0.191c-0.828-0.008-1.507,0.656-1.516,1.485c-0.006,0.564,0.305,1.083,0.805,1.345l12.406,6.714  H37.6c-12.654,0-23.101,9.742-23.101,21.741C14.499,57.71,18.861,64.526,25.313,68.372z" /></svg>